<?xml version="1.0" encoding="utf-8"?>
<!-- Generator: Adobe Illustrator 26.0.3, SVG Export Plug-In . SVG Version: 6.00 Build 0)  -->
<svg version="1.1" id="Layer_1" xmlns="http://www.w3.org/2000/svg" xmlns:xlink="http://www.w3.org/1999/xlink" x="0px" y="0px"
	 viewBox="0 0 488 488" style="enable-background:new 0 0 488 488;" xml:space="preserve">
<style type="text/css">
	.st0{fill:url(#SVGID_1_);}
	.st1{fill:url(#SVGID_00000066475904359924832490000006953362533186668928_);}
	.st2{fill:url(#SVGID_00000024685252028707066320000000061203251461823365_);}
	.st3{fill:url(#SVGID_00000134965409951007314230000009549178564453273729_);}
	.st4{fill:url(#SVGID_00000057142731816694676830000005335640315621652881_);}
	.st5{fill:url(#SVGID_00000135664681761731709810000010776836452366470786_);}
	.st6{fill:url(#SVGID_00000116923121283345200480000007482676868719057831_);}
	.st7{fill:url(#SVGID_00000004515497771327344640000003289502647304390551_);}
	.st8{fill:url(#SVGID_00000120521964603001702200000008751875012502697899_);}
	.st9{fill:url(#SVGID_00000011006845139054185160000009785763435079955083_);}
</style>
<g transform="translate(0 -540.36)">
	<g>
		<g>
			<g>
				<linearGradient id="SVGID_1_" gradientUnits="userSpaceOnUse" x1="121.3195" y1="784.4247" x2="367.4805" y2="784.4247">
					<stop  offset="0" style="stop-color:#C6D5FF"/>
					<stop  offset="1" style="stop-color:#876EFF"/>
				</linearGradient>
				<path class="st0" d="M336.5,713.3c0.5-2.6,0.9-5.4,0.9-8.4c0-29.1-26-52.8-57.9-52.8c-13.9,0-27.7,5.1-38,13.6
					c-10.7-8.7-24.3-13.6-38.4-13.6c-15.1,0-29.4,5.3-40.1,15.1c-11,10-17,23.4-17,37.7c0,3.8,0.4,7.5,1.1,10.9
					c-15.9,9.6-25.8,26.1-25.8,44.1c0,9.6,2.3,18.2,7.1,26.1c-4.6,7.8-7.1,16.8-7.1,25.9c0,18.1,9.1,34.2,24.9,44.2
					c-0.2,2.7-0.2,5.3-0.2,7.8c0,14.3,6.1,27.7,17,37.7c10.7,9.7,24.9,15.1,40.1,15.1c14.1,0,27.6-4.9,38.4-13.6
					c10.4,8.6,24.1,13.6,38,13.6c31.9,0,57.9-23.7,57.9-52.7c0-1.8-0.1-3.6-0.3-5.3c18.5-9.2,30.4-27.1,30.4-46.7
					c0-9.1-2.5-18-7.1-25.9c4.8-7.9,7.1-16.5,7.1-26.1C367.5,740.1,355.2,722,336.5,713.3z M340.6,792.2c4.6,5.7,7,12.5,7,19.7
					c0,13.6-10,26.1-24.8,31c-4.8,1.6-7.7,6.5-6.7,11.5c0.6,3.4,1.3,6.7,1.3,9.5c0,18.1-17,32.8-37.9,32.8c-11.6,0-23.4-5.4-30-13.8
					c-1.8-2.3-4.6-3.7-7.6-3.8c-0.1,0-0.1,0-0.2,0l0,0c-2.9,0-5.7,1.2-7.4,3.7c-7.7,8.9-19,14.1-31,14.1
					c-20.5,0-37.1-14.7-37.1-32.8c0-3.6,0-7.3,0.8-9.3c2-4.9-0.2-10.5-5-12.8c-12.8-6.1-20.5-17.3-20.5-30c0-7.2,2.4-14,7-19.7
					c3-3.7,3-8.9,0-12.6c-4.8-5.9-7-12.2-7-19.7c0-12.7,8.4-24.4,21.5-29.7c2.5-1,4.5-3,5.5-5.5s1-5.3-0.1-7.8
					c-1.6-3.6-2.3-7.4-2.3-12.1c0-18.1,16.7-32.8,37.1-32.8c11.9,0,23.2,5.1,31,14.1c2,2.3,4.8,3.6,7.8,3.5c3-0.1,5.7-1.5,7.6-3.8
					c6.7-8.4,18.4-13.8,30-13.8c20.9,0,37.9,14.7,37.9,32.8c0,3.7-1.2,7.2-2.6,11.3c-0.8,2.6-0.6,5.5,0.7,7.9s3.5,4.2,6.2,4.9
					c15.2,4.1,25.8,16.8,25.8,30.9c0,7.5-2.2,13.7-7,19.7C337.6,783.3,337.6,788.5,340.6,792.2z"/>
				
					<linearGradient id="SVGID_00000047046433572238478520000011091515983475399825_" gradientUnits="userSpaceOnUse" x1="214.0176" y1="784.2961" x2="274.9824" y2="784.2961">
					<stop  offset="0" style="stop-color:#C6D5FF"/>
					<stop  offset="1" style="stop-color:#876EFF"/>
				</linearGradient>
				<path style="fill:url(#SVGID_00000047046433572238478520000011091515983475399825_);" d="M261.8,767.1l-21.4,7.2l13.2-37.2
					c1.8-5.2-0.9-11-6.1-12.8s-11,0.9-12.8,6.1L214.6,787c-1.3,3.7-0.4,7.7,2.3,10.4c2.7,2.8,6.7,3.7,10.3,2.5l21.3-7.2l-13.9,38.7
					c-1.9,5.2,0.8,10.9,6,12.8c1.1,0.4,2.3,0.6,3.4,0.6l0,0c4.1,0,7.9-2.6,9.6-6.7l20.8-58.1c1.3-3.6,0.4-7.7-2.3-10.4
					C269.4,766.8,265.4,765.9,261.8,767.1z"/>
				
					<linearGradient id="SVGID_00000009580521805393874780000007109838715403806360_" gradientUnits="userSpaceOnUse" x1="244.0005" y1="630.7022" x2="244.0005" y2="630.7022">
					<stop  offset="0" style="stop-color:#C6D5FF"/>
					<stop  offset="1" style="stop-color:#876EFF"/>
				</linearGradient>
				<path style="fill:url(#SVGID_00000009580521805393874780000007109838715403806360_);" d="M244,630.7L244,630.7L244,630.7z"/>
				
					<linearGradient id="SVGID_00000087407689588082437970000011584935450239271829_" gradientUnits="userSpaceOnUse" x1="223.9234" y1="585.5309" x2="264.6301" y2="585.5309">
					<stop  offset="0" style="stop-color:#C6D5FF"/>
					<stop  offset="1" style="stop-color:#876EFF"/>
				</linearGradient>
				<path style="fill:url(#SVGID_00000087407689588082437970000011584935450239271829_);" d="M227.6,597.9c3,2.5,7.1,3,10.6,1.3
					l1.3-0.6l-5.2,19.6c-1.4,5.3,1.8,10.8,7.1,12.2c0.9,0.2,1.7,0.3,2.6,0.3c4.4,0,8.5-3,9.5-7.5l10.8-40.5c1-3.8-0.3-7.8-3.3-10.3
					s-7.2-3-10.7-1.3l-1.6,0.8l4.8-19.1c1.4-5.3-1.8-10.7-7.2-12.1c-5.3-1.4-10.7,1.8-12.1,7.2l-10,39.8
					C223.3,591.5,224.6,595.4,227.6,597.9z"/>
				
					<linearGradient id="SVGID_00000080171065649103115930000002120732243994228097_" gradientUnits="userSpaceOnUse" x1="48.7507" y1="626.3598" x2="120.5272" y2="626.3598">
					<stop  offset="0" style="stop-color:#C6D5FF"/>
					<stop  offset="1" style="stop-color:#876EFF"/>
				</linearGradient>
				<path style="fill:url(#SVGID_00000080171065649103115930000002120732243994228097_);" d="M53.4,609.2l17.9,11.3
					c-3.3,1.3-5.7,4.4-6.2,8c-0.5,3.9,1.3,7.7,4.6,9.8l35.5,22.2c1.7,1,3.5,1.5,5.3,1.5c3.3,0,6.6-1.7,8.5-4.7
					c2.9-4.7,1.5-10.9-3.2-13.8l-16.9-10.6c3.3-1.3,5.6-4.3,6.1-7.9c0.5-3.9-1.3-7.7-4.6-9.8l-36.3-22.9c-4.7-3-10.8-1.6-13.8,3.1
					C47.3,600.1,48.7,606.2,53.4,609.2z"/>
				
					<linearGradient id="SVGID_00000002355096304080961080000014110140367274084756_" gradientUnits="userSpaceOnUse" x1="48.8518" y1="942.3074" x2="120.7003" y2="942.3074">
					<stop  offset="0" style="stop-color:#C6D5FF"/>
					<stop  offset="1" style="stop-color:#876EFF"/>
				</linearGradient>
				<path style="fill:url(#SVGID_00000002355096304080961080000014110140367274084756_);" d="M105.3,908.3L69,931.2
					c-3.4,2.1-5.1,5.9-4.6,9.8c0.5,3.6,2.9,6.6,6.3,7.9l-17.1,10.4c-4.7,2.8-6.2,9-3.3,13.7c1.8,3.1,5.1,4.8,8.5,4.8l0,0
					c1.7,0,3.5-0.4,5.3-1.3l36.3-22.2c3.4-2,5.2-5.9,4.7-9.8c-0.5-3.8-3.1-7-6.7-8.2l17.6-11.1c4.7-3,6.1-9.1,3.1-13.8
					C116.1,906.7,110,905.3,105.3,908.3z"/>
				
					<linearGradient id="SVGID_00000135688939235720437900000013329367614756333959_" gradientUnits="userSpaceOnUse" x1="223.9229" y1="983.189" x2="264.6296" y2="983.189">
					<stop  offset="0" style="stop-color:#C6D5FF"/>
					<stop  offset="1" style="stop-color:#876EFF"/>
				</linearGradient>
				<path style="fill:url(#SVGID_00000135688939235720437900000013329367614756333959_);" d="M261,970.1c-3-2.5-7.2-3-10.7-1.3
					l-1.6,0.8l4.8-19.1c1.4-5.3-1.8-10.7-7.2-12.1c-5.3-1.4-10.7,1.8-12.1,7.2l-10,39.8c-0.9,3.8,0.4,7.7,3.4,10.2
					c3,2.5,7.1,3,10.6,1.3l1.3-0.6l-5.2,19.6c-1.4,5.3,1.8,10.8,7.1,12.2c0.9,0.2,1.7,0.3,2.6,0.3c4.4,0,8.5-3,9.5-7.5l10.8-40.5
					C265.3,976.6,264,972.6,261,970.1z"/>
				
					<linearGradient id="SVGID_00000113317871040771448200000013077517533870027955_" gradientUnits="userSpaceOnUse" x1="244.0005" y1="1028.3602" x2="244.0005" y2="1028.3602">
					<stop  offset="0" style="stop-color:#C6D5FF"/>
					<stop  offset="1" style="stop-color:#876EFF"/>
				</linearGradient>
				<path style="fill:url(#SVGID_00000113317871040771448200000013077517533870027955_);" d="M244,1028.4L244,1028.4L244,1028.4z"/>
				
					<linearGradient id="SVGID_00000115511177292967295550000006861477632719569804_" gradientUnits="userSpaceOnUse" x1="368.2725" y1="626.4331" x2="439.2493" y2="626.4331">
					<stop  offset="0" style="stop-color:#C6D5FF"/>
					<stop  offset="1" style="stop-color:#876EFF"/>
				</linearGradient>
				<path style="fill:url(#SVGID_00000115511177292967295550000006861477632719569804_);" d="M378.3,662L378.3,662
					c1.8,0,3.7-0.5,5.3-1.6l35.5-22.2c3.3-2,5.1-5.9,4.6-9.8c-0.5-3.8-3.1-6.9-6.7-8.1l17.6-11c4.7-3,6.1-9.1,3.1-13.8
					s-9.1-6-13.8-3.1l-36.3,22.9c-3.4,2.1-5.1,5.9-4.6,9.8c0.6,3.7,3.1,6.8,6.6,8L373,643.5c-4.7,2.9-6.1,9.1-3.2,13.8
					C371.7,660.3,375,662,378.3,662z"/>
				
					<linearGradient id="SVGID_00000116935202843882740390000005743314748722457474_" gradientUnits="userSpaceOnUse" x1="368.2008" y1="942.2583" x2="439.1775" y2="942.2583">
					<stop  offset="0" style="stop-color:#C6D5FF"/>
					<stop  offset="1" style="stop-color:#876EFF"/>
				</linearGradient>
				<path style="fill:url(#SVGID_00000116935202843882740390000005743314748722457474_);" d="M434.5,959.4l-16.6-10.4
					c3.5-1.2,6.1-4.3,6.6-8c0.5-3.9-1.3-7.7-4.6-9.8l-36.3-22.9c-4.7-3-10.8-1.6-13.8,3.1s-1.6,10.8,3.1,13.8l17.6,11.1
					c-3.6,1.2-6.2,4.3-6.7,8.1c-0.5,3.9,1.3,7.7,4.6,9.8l35.5,22.2c1.7,1,3.5,1.5,5.3,1.5l0,0c3.4,0,6.6-1.6,8.5-4.7
					C440.6,968.5,439.2,962.3,434.5,959.4z"/>
			</g>
		</g>
	</g>
</g>
</svg>
